<svg xmlns="http://www.w3.org/2000/svg" viewBox="0 0 754.9 154.37"><defs><style>.cls-1{fill:#5b254e;}.cls-2{fill:#7b969f;}.cls-3{fill:#00a1aa;}</style></defs><title>Find-logo-color-2</title><g id="Capa_2" data-name="Capa 2"><g id="Capa_1-2" data-name="Capa 1"><path class="cls-1" d="M438,102.25a61.6,61.6,0,0,1-11.86,21,51,51,0,0,1-18,13.19,55.8,55.8,0,0,1-22.78,4.6H383a168.68,168.68,0,0,1-17.81-1.6V14.25c1.59-.16,15.42-1.61,17.81-1.61h1.89a56.94,56.94,0,0,1,23.38,4.69,52.1,52.1,0,0,1,18.15,13.45,61.69,61.69,0,0,1,11.74,21c2.77,8.2,4.15,12.59,4.15,22.69A84.82,84.82,0,0,1,438,102.25M471.67,47a60.78,60.78,0,0,0-18.49-23.53q-12.35-9.64-30.61-14.82T379.85,3.46H334.3V150.23H386q22.31,0,39.51-5.62t28.83-15.72a65.23,65.23,0,0,0,17.58-24.23,79.77,79.77,0,0,0,5.92-31.11c0-11.62-2.07-17.32-6.19-26.59"/><path class="cls-1" d="M290.1,104.32,208.48,17.23A33.48,33.48,0,0,0,194.61,6.9a52.31,52.31,0,0,0-16-3.25c0,4.85,0,24.45,0,27.34V150.24h11.86V41.34L291.05,150.92H302V3.45H290.1V104.32"/><path class="cls-1" d="M115.41,120.39a91.71,91.71,0,0,0,.94,14.47,21.48,21.48,0,0,0,3.44,9.18,13.08,13.08,0,0,0,6.65,4.82,33.08,33.08,0,0,0,10.31,1.37h9.5V3.45H115.41V120.39"/><polyline class="cls-1" points="0 3.45 0 150.23 30.85 150.23 30.85 77.91 83.05 77.91 83.05 67.58 30.85 67.58 30.85 13.78 94.04 13.78 94.08 3.45 0 3.45"/><polygon class="cls-2" points="591.73 77.19 514.68 19.12 514.68 135.25 591.73 77.19"/><polygon class="cls-3" points="576.38 9.22 576.38 50.91 598.8 67.8 611.26 77.19 598.8 86.57 576.38 103.47 576.38 145.15 666.57 77.19 576.38 9.22"/><polygon class="cls-1" points="652.47 0 652.47 51.85 673.64 67.8 686.1 77.19 673.64 86.57 652.47 102.53 652.47 154.37 754.9 77.19 652.47 0"/></g></g></svg>