<?xml version="1.0" encoding="utf-8"?>
<!-- Generator: Adobe Illustrator 23.0.2, SVG Export Plug-In . SVG Version: 6.00 Build 0)  -->
<svg version="1.1" id="Calque_1" xmlns="http://www.w3.org/2000/svg" xmlns:xlink="http://www.w3.org/1999/xlink" x="0px" y="0px"
	 viewBox="0 0 154 53" style="enable-background:new 0 0 154 53;" xml:space="preserve">
<style type="text/css">
	.st0{fill:#5F2C59;}
	.st1{fill:#7894A0;}
	.st2{fill:#00B0B4;}
</style>
<path class="st0" d="M147.56,47.65c0.4,0.71,1.14,1.07,2.21,1.07c0.6,0,1.1-0.12,1.49-0.37c0.6-0.39,0.9-0.97,0.9-1.74
	c0-0.38-0.09-0.71-0.26-0.99c-0.24-0.39-0.69-0.69-1.37-0.9l-0.94-0.28c-0.59-0.18-0.89-0.55-0.89-1.09c0-0.27,0.07-0.5,0.22-0.68
	c0.19-0.25,0.46-0.37,0.82-0.37c0.22,0,0.41,0.05,0.59,0.16c0.14,0.1,0.23,0.21,0.29,0.34c0.09,0.23,0.15,0.57,0.15,1.01H152
	c-0.04-0.44-0.14-0.8-0.32-1.09c-0.37-0.61-1.01-0.91-1.94-0.91c-0.55,0-1.02,0.13-1.41,0.38c-0.59,0.38-0.89,0.94-0.89,1.66
	c0,0.54,0.18,0.97,0.53,1.3c0.26,0.24,0.68,0.45,1.26,0.63l0.73,0.22c0.64,0.19,0.96,0.56,0.96,1.11c0,0.26-0.08,0.5-0.24,0.72
	c-0.2,0.27-0.51,0.4-0.91,0.4c-0.27,0-0.51-0.07-0.72-0.21c-0.16-0.1-0.27-0.23-0.34-0.39c-0.12-0.27-0.18-0.63-0.18-1.08h-1.27
	C147.29,46.98,147.38,47.35,147.56,47.65 M142.92,48.56h1.54v-3.54c0-0.59,0.11-1.04,0.32-1.34c0.2-0.28,0.47-0.42,0.79-0.42
	c0.25,0,0.56,0.08,0.91,0.23v-1.65c-0.58,0.07-1.01,0.23-1.3,0.49c-0.35,0.31-0.63,0.84-0.82,1.58v-1.94h-1.45V48.56z M137.07,44.86
	c0-0.47,0.07-0.91,0.19-1.33c0.23-0.83,0.66-1.24,1.29-1.24c0.47,0,0.82,0.21,1.02,0.63c0.25,0.52,0.38,1.17,0.39,1.95H137.07z
	 M140.51,42.55c-0.51-0.49-1.16-0.74-1.95-0.74c-0.62,0-1.17,0.16-1.65,0.47c-0.39,0.26-0.68,0.59-0.87,0.98
	c-0.29,0.59-0.43,1.24-0.43,1.96c0,0.43,0.05,0.84,0.16,1.24c0.13,0.52,0.33,0.94,0.59,1.26c0.54,0.67,1.31,1.01,2.3,1.01
	c1.42,0,2.3-0.7,2.63-2.1h-0.64c-0.09,0.38-0.24,0.69-0.44,0.94c-0.36,0.44-0.81,0.66-1.36,0.66c-1.18,0-1.77-0.96-1.79-2.9h4.35
	C141.39,44.03,141.09,43.1,140.51,42.55 M131.07,42.52h0.92v4.08c0,0.58,0.08,1.02,0.23,1.32c0.28,0.54,0.75,0.8,1.39,0.8
	c0.42,0,0.94-0.09,1.55-0.26v-0.54c-0.43,0.12-0.74,0.19-0.92,0.19c-0.27,0-0.46-0.11-0.56-0.34c-0.1-0.21-0.15-0.57-0.15-1.07
	v-4.18h1.66v-0.54h-1.66v-2.22l-1.53,0.37v1.85h-0.92V42.52z M126.79,42.52h0.92v4.08c0,0.58,0.08,1.02,0.23,1.32
	c0.28,0.54,0.74,0.8,1.39,0.8c0.42,0,0.94-0.09,1.55-0.26v-0.54c-0.44,0.12-0.74,0.19-0.92,0.19c-0.27,0-0.45-0.11-0.56-0.34
	c-0.1-0.21-0.15-0.57-0.15-1.07v-4.18h1.66v-0.54h-1.66v-2.22l-1.53,0.37v1.85h-0.92V42.52z M124.28,46.98
	c-0.25,0.76-0.66,1.14-1.24,1.14c-0.63,0-0.94-0.46-0.94-1.39c0-0.69,0.23-1.16,0.7-1.41c0.33-0.18,0.88-0.27,1.65-0.27
	C124.46,45.97,124.4,46.61,124.28,46.98 M124.43,48.56h1.48v-4.21c0-0.45-0.03-0.8-0.09-1.06c-0.06-0.27-0.18-0.52-0.36-0.73
	c-0.42-0.5-1.08-0.75-2.01-0.75c-0.72,0-1.31,0.13-1.76,0.39c-0.23,0.13-0.43,0.34-0.59,0.63c-0.16,0.28-0.24,0.6-0.24,0.96h1.37
	v-0.13c0.01-0.93,0.38-1.4,1.13-1.4c0.46,0,0.77,0.17,0.93,0.5c0.12,0.25,0.18,0.64,0.18,1.18v0.66c-1.45,0.04-2.43,0.2-2.92,0.47
	c-0.67,0.36-1.01,0.93-1.01,1.72c0,0.5,0.13,0.92,0.39,1.27c0.33,0.43,0.85,0.65,1.56,0.65c0.61,0,1.1-0.2,1.45-0.6
	c0.19-0.23,0.36-0.55,0.5-0.98V48.56z M109.85,48.56h1.53v-3c0-0.63,0.03-1.12,0.1-1.47c0.09-0.54,0.27-0.96,0.53-1.25
	c0.25-0.28,0.52-0.42,0.83-0.42c0.37,0,0.61,0.16,0.74,0.49c0.12,0.31,0.19,0.83,0.19,1.55v4.1h1.53v-2.87
	c0-1.43,0.21-2.38,0.64-2.86c0.24-0.27,0.51-0.41,0.82-0.41c0.36,0,0.61,0.17,0.76,0.51c0.11,0.25,0.17,0.7,0.17,1.36v4.27h1.53
	v-4.44c0-0.56-0.08-1-0.24-1.33c-0.32-0.64-0.87-0.96-1.66-0.96c-0.64,0-1.16,0.22-1.54,0.66c-0.2,0.23-0.37,0.57-0.51,1.01
	c-0.08-0.43-0.21-0.77-0.38-1c-0.32-0.45-0.81-0.67-1.46-0.67c-0.67,0-1.21,0.24-1.62,0.71c-0.22,0.25-0.4,0.63-0.53,1.12v-1.67
	h-1.4V48.56z M99.95,47.65c0.41,0.71,1.14,1.07,2.21,1.07c0.6,0,1.1-0.12,1.49-0.37c0.6-0.39,0.9-0.97,0.9-1.74
	c0-0.38-0.09-0.71-0.26-0.99c-0.24-0.39-0.69-0.69-1.37-0.9l-0.94-0.28c-0.59-0.18-0.89-0.55-0.89-1.09c0-0.27,0.07-0.5,0.21-0.68
	c0.19-0.25,0.46-0.37,0.82-0.37c0.22,0,0.41,0.05,0.59,0.16c0.14,0.1,0.23,0.21,0.29,0.34c0.09,0.23,0.14,0.57,0.15,1.01h1.23
	c-0.04-0.44-0.14-0.8-0.32-1.09c-0.37-0.61-1.01-0.91-1.93-0.91c-0.55,0-1.02,0.13-1.41,0.38c-0.59,0.38-0.89,0.94-0.89,1.66
	c0,0.54,0.18,0.97,0.53,1.3c0.26,0.24,0.68,0.45,1.26,0.63l0.73,0.22c0.64,0.19,0.96,0.56,0.96,1.11c0,0.26-0.08,0.5-0.24,0.72
	c-0.2,0.27-0.51,0.4-0.91,0.4c-0.27,0-0.51-0.07-0.72-0.21c-0.16-0.1-0.27-0.23-0.34-0.39c-0.12-0.27-0.18-0.63-0.18-1.08h-1.27
	C99.67,46.98,99.77,47.35,99.95,47.65 M96.73,38.32c-0.19,0.17-0.28,0.4-0.28,0.67c0,0.23,0.07,0.43,0.22,0.6
	c0.18,0.2,0.44,0.3,0.79,0.3c0.32,0,0.57-0.08,0.73-0.23c0.18-0.17,0.27-0.39,0.27-0.66c0-0.26-0.08-0.47-0.23-0.63
	c-0.18-0.19-0.44-0.28-0.77-0.28C97.14,38.09,96.9,38.16,96.73,38.32 M96.68,48.56h1.54v-6.58h-1.54V48.56z M90.54,47.65
	c0.41,0.71,1.14,1.07,2.21,1.07c0.6,0,1.1-0.12,1.49-0.37c0.6-0.39,0.9-0.97,0.9-1.74c0-0.38-0.09-0.71-0.26-0.99
	c-0.24-0.39-0.69-0.69-1.37-0.9l-0.94-0.28c-0.59-0.18-0.89-0.55-0.89-1.09c0-0.27,0.07-0.5,0.21-0.68
	c0.19-0.25,0.46-0.37,0.82-0.37c0.22,0,0.41,0.05,0.59,0.16c0.14,0.1,0.23,0.21,0.29,0.34c0.09,0.23,0.15,0.57,0.16,1.01h1.23
	c-0.03-0.44-0.14-0.8-0.32-1.09c-0.37-0.61-1.01-0.91-1.94-0.91c-0.55,0-1.02,0.13-1.41,0.38c-0.59,0.38-0.89,0.94-0.89,1.66
	c0,0.54,0.18,0.97,0.53,1.3c0.26,0.24,0.68,0.45,1.26,0.63l0.73,0.22c0.64,0.19,0.96,0.56,0.96,1.11c0,0.26-0.08,0.5-0.24,0.72
	c-0.2,0.27-0.51,0.4-0.91,0.4c-0.27,0-0.51-0.07-0.72-0.21c-0.16-0.1-0.27-0.23-0.34-0.39c-0.12-0.27-0.18-0.63-0.18-1.08h-1.27
	C90.27,46.98,90.37,47.35,90.54,47.65 M87.27,42.99c0.24,0.52,0.36,1.3,0.36,2.35c0,1.41-0.25,2.31-0.75,2.71
	c-0.19,0.15-0.43,0.23-0.72,0.23c-0.25,0-0.46-0.07-0.65-0.2c-0.19-0.13-0.33-0.31-0.41-0.52c-0.24-0.6-0.36-1.33-0.36-2.18
	c0-1.04,0.12-1.84,0.36-2.38c0.22-0.49,0.58-0.73,1.1-0.73C86.7,42.26,87.06,42.51,87.27,42.99 M84.02,42.61
	c-0.62,0.61-0.93,1.49-0.93,2.65c0,0.74,0.15,1.42,0.44,2.03c0.2,0.42,0.51,0.75,0.92,1.01c0.51,0.32,1.09,0.48,1.74,0.48
	c0.64,0,1.21-0.16,1.72-0.48c0.42-0.26,0.72-0.6,0.93-1.01c0.29-0.59,0.43-1.24,0.43-1.94c0-1.21-0.3-2.11-0.9-2.72
	c-0.56-0.57-1.29-0.85-2.18-0.85C85.3,41.77,84.58,42.05,84.02,42.61 M76.24,41.98v6.58h1.54v-2.78c0-1.46,0.21-2.42,0.62-2.9
	c0.25-0.28,0.53-0.42,0.84-0.42c0.35,0,0.6,0.18,0.75,0.53c0.11,0.26,0.17,0.72,0.17,1.38v4.19h1.54v-4.24
	c0-0.66-0.09-1.18-0.26-1.53c-0.32-0.64-0.88-0.96-1.68-0.96c-1.09,0-1.78,0.66-2.09,1.98v-1.82H76.24z M71.32,49.6l1.82,0.14
	c0.54,0.04,0.91,0.16,1.1,0.36c0.16,0.17,0.24,0.39,0.24,0.66c0,0.24-0.06,0.47-0.19,0.68c-0.17,0.29-0.38,0.5-0.64,0.63
	c-0.5,0.26-1.07,0.39-1.71,0.39c-0.34,0-0.66-0.04-0.97-0.12c-0.41-0.1-0.71-0.25-0.93-0.44c-0.38-0.35-0.56-0.77-0.56-1.25
	c0-0.48,0.2-0.91,0.59-1.3C70.38,49.49,70.79,49.56,71.32,49.6 M73.03,44.32c0,1.38-0.38,2.07-1.13,2.07
	c-0.39,0-0.67-0.17-0.85-0.51c-0.18-0.36-0.27-0.89-0.27-1.61c0-0.71,0.12-1.24,0.35-1.57c0.19-0.28,0.45-0.42,0.78-0.42
	C72.65,42.29,73.03,42.96,73.03,44.32 M73.07,42.04c-0.42-0.14-0.82-0.22-1.21-0.22c-0.87,0-1.54,0.29-2.01,0.86
	c-0.38,0.47-0.56,1.02-0.56,1.66c0,0.63,0.18,1.17,0.53,1.63c0.18,0.24,0.45,0.45,0.79,0.63c-0.34,0.17-0.59,0.34-0.74,0.51
	c-0.24,0.27-0.36,0.6-0.36,0.99c0,0.42,0.16,0.78,0.48,1.09c-0.74,0.44-1.1,1.01-1.1,1.71c0,0.32,0.07,0.62,0.22,0.9
	c0.16,0.3,0.37,0.54,0.65,0.72c0.5,0.32,1.16,0.48,1.99,0.48c1.28,0,2.2-0.35,2.76-1.04c0.38-0.46,0.56-1.01,0.56-1.65
	c0-0.7-0.22-1.2-0.65-1.5c-0.33-0.23-0.85-0.37-1.55-0.42l-1.22-0.1c-0.45-0.03-0.74-0.1-0.88-0.21c-0.16-0.12-0.24-0.31-0.24-0.57
	c0-0.34,0.16-0.6,0.49-0.78c0.31,0.07,0.59,0.11,0.85,0.11c0.82,0,1.49-0.24,1.99-0.73c0.45-0.43,0.67-1.02,0.67-1.77
	c0-0.69-0.22-1.26-0.64-1.73h1.34v-0.57H73.07z M66.14,46.98c-0.25,0.76-0.66,1.14-1.24,1.14c-0.63,0-0.94-0.46-0.94-1.39
	c0-0.69,0.23-1.16,0.7-1.41c0.33-0.18,0.88-0.27,1.65-0.27C66.32,45.97,66.26,46.61,66.14,46.98 M66.29,48.56h1.48v-4.21
	c0-0.45-0.03-0.8-0.09-1.06c-0.06-0.27-0.19-0.52-0.36-0.73c-0.41-0.5-1.09-0.75-2.01-0.75c-0.72,0-1.31,0.13-1.76,0.39
	c-0.23,0.13-0.43,0.34-0.59,0.63c-0.16,0.28-0.24,0.6-0.24,0.96h1.37v-0.13c0.01-0.93,0.38-1.4,1.13-1.4c0.46,0,0.77,0.17,0.93,0.5
	c0.12,0.25,0.19,0.64,0.19,1.18v0.66c-1.45,0.04-2.43,0.2-2.92,0.47c-0.67,0.36-1.01,0.93-1.01,1.72c0,0.5,0.13,0.92,0.39,1.27
	c0.33,0.43,0.85,0.65,1.56,0.65c0.61,0,1.1-0.2,1.45-0.6c0.19-0.23,0.36-0.55,0.5-0.98V48.56z M59.42,38.32
	c-0.19,0.17-0.28,0.4-0.28,0.67c0,0.23,0.07,0.43,0.21,0.6c0.18,0.2,0.44,0.3,0.79,0.3c0.32,0,0.57-0.08,0.73-0.23
	c0.18-0.17,0.27-0.39,0.27-0.66c0-0.26-0.08-0.47-0.23-0.63c-0.18-0.19-0.43-0.28-0.77-0.28C59.83,38.09,59.59,38.16,59.42,38.32
	 M59.38,48.56h1.54v-6.58h-1.54V48.56z M54.95,42.6c0.24,0.18,0.43,0.42,0.56,0.71c0.23,0.5,0.35,1.15,0.35,1.96
	c0,0.43-0.04,0.83-0.12,1.21c-0.1,0.48-0.24,0.84-0.42,1.08c-0.29,0.4-0.63,0.6-1.02,0.6c-0.16,0-0.32-0.05-0.46-0.14
	c-0.18-0.11-0.32-0.26-0.41-0.43c-0.26-0.49-0.39-1.32-0.39-2.5c0-0.41,0.04-0.82,0.1-1.23c0.08-0.48,0.2-0.82,0.36-1.03
	c0.23-0.3,0.5-0.45,0.81-0.45C54.55,42.38,54.76,42.45,54.95,42.6 M57.41,37.79h-1.54v5.59c-0.37-1.04-1.02-1.56-1.96-1.56
	c-0.45,0-0.87,0.12-1.25,0.37c-0.38,0.26-0.66,0.58-0.83,0.95c-0.28,0.62-0.41,1.32-0.41,2.11c0,0.46,0.05,0.89,0.14,1.31
	c0.13,0.55,0.31,0.98,0.55,1.27c0.47,0.59,1.07,0.89,1.81,0.89c0.57,0,1.06-0.21,1.45-0.62c0.24-0.25,0.42-0.61,0.56-1.08v1.54h1.48
	V37.79z M42.22,44.86c0-0.47,0.07-0.91,0.19-1.33c0.23-0.83,0.66-1.24,1.29-1.24c0.47,0,0.82,0.21,1.02,0.63
	c0.25,0.52,0.38,1.17,0.39,1.95H42.22z M45.67,42.55c-0.51-0.49-1.16-0.74-1.95-0.74c-0.62,0-1.17,0.16-1.65,0.47
	c-0.39,0.26-0.68,0.59-0.88,0.98c-0.29,0.59-0.43,1.24-0.43,1.96c0,0.43,0.05,0.84,0.16,1.24c0.13,0.52,0.33,0.94,0.59,1.26
	c0.54,0.67,1.31,1.01,2.3,1.01c1.42,0,2.3-0.7,2.63-2.1H45.8c-0.09,0.38-0.24,0.69-0.45,0.94C45,48.01,44.54,48.23,44,48.23
	c-1.18,0-1.77-0.96-1.79-2.9h4.35C46.54,44.03,46.24,43.1,45.67,42.55 M35.08,47.65c0.41,0.71,1.14,1.07,2.21,1.07
	c0.6,0,1.1-0.12,1.49-0.37c0.6-0.39,0.9-0.97,0.9-1.74c0-0.38-0.09-0.71-0.26-0.99c-0.24-0.39-0.69-0.69-1.37-0.9l-0.94-0.28
	c-0.59-0.18-0.89-0.55-0.89-1.09c0-0.27,0.07-0.5,0.21-0.68c0.19-0.25,0.46-0.37,0.82-0.37c0.22,0,0.41,0.05,0.59,0.16
	c0.14,0.1,0.23,0.21,0.29,0.34c0.09,0.23,0.15,0.57,0.16,1.01h1.23c-0.03-0.44-0.14-0.8-0.32-1.09c-0.37-0.61-1.01-0.91-1.94-0.91
	c-0.55,0-1.02,0.13-1.41,0.38c-0.59,0.38-0.89,0.94-0.89,1.66c0,0.54,0.18,0.97,0.53,1.3c0.26,0.24,0.68,0.45,1.26,0.63l0.73,0.22
	c0.64,0.19,0.96,0.56,0.96,1.11c0,0.26-0.08,0.5-0.24,0.72c-0.2,0.27-0.51,0.4-0.91,0.4c-0.27,0-0.51-0.07-0.72-0.21
	c-0.16-0.1-0.27-0.23-0.34-0.39c-0.12-0.27-0.18-0.63-0.18-1.08H34.8C34.81,46.98,34.9,47.35,35.08,47.65 M31.84,41.98v2.79
	c0,1.46-0.21,2.43-0.62,2.9c-0.25,0.28-0.53,0.42-0.84,0.42c-0.35,0-0.6-0.18-0.75-0.53c-0.11-0.26-0.17-0.73-0.17-1.38v-4.19h-1.54
	v4.25c0,0.66,0.09,1.17,0.26,1.53c0.32,0.64,0.88,0.96,1.68,0.96c1.09,0,1.78-0.66,2.09-1.97v1.82h1.43v-6.58H31.84z M24.61,46.98
	c-0.25,0.76-0.66,1.14-1.24,1.14c-0.63,0-0.94-0.46-0.94-1.39c0-0.69,0.23-1.16,0.7-1.41c0.33-0.18,0.88-0.27,1.65-0.27
	C24.79,45.97,24.73,46.61,24.61,46.98 M24.76,48.56h1.48v-4.21c0-0.45-0.03-0.8-0.09-1.06c-0.06-0.27-0.19-0.52-0.36-0.73
	c-0.41-0.5-1.09-0.75-2.01-0.75c-0.72,0-1.31,0.13-1.76,0.39c-0.23,0.13-0.42,0.34-0.59,0.63c-0.16,0.28-0.24,0.6-0.24,0.96h1.37
	v-0.13c0-0.93,0.38-1.4,1.13-1.4c0.46,0,0.77,0.17,0.93,0.5c0.12,0.25,0.19,0.64,0.19,1.18v0.66c-1.45,0.04-2.43,0.2-2.92,0.47
	c-0.67,0.36-1.01,0.93-1.01,1.72c0,0.5,0.13,0.92,0.39,1.27c0.33,0.43,0.85,0.65,1.56,0.65c0.61,0,1.1-0.2,1.45-0.6
	c0.19-0.23,0.36-0.55,0.5-0.98V48.56z M19.02,47.48c-0.3,0.48-0.72,0.71-1.25,0.71c-0.57,0-1-0.28-1.27-0.86
	c-0.22-0.46-0.33-1.14-0.33-2.03c0-2,0.47-3.01,1.4-3.01c0.72,0,1.08,0.65,1.07,1.95h1.39c0-0.47-0.11-0.89-0.32-1.26
	c-0.44-0.78-1.16-1.18-2.17-1.18c-0.97,0-1.74,0.35-2.31,1.06c-0.48,0.6-0.72,1.39-0.72,2.36c0,1.09,0.26,1.94,0.79,2.55
	c0.54,0.62,1.27,0.93,2.19,0.93c0.51,0,0.97-0.11,1.39-0.34c0.27-0.15,0.5-0.36,0.67-0.63c0.21-0.32,0.34-0.73,0.39-1.23h-0.62
	C19.27,46.92,19.17,47.23,19.02,47.48 M9.1,44.86c0-0.47,0.07-0.91,0.19-1.33c0.23-0.83,0.66-1.24,1.29-1.24
	c0.48,0,0.82,0.21,1.02,0.63c0.25,0.52,0.38,1.17,0.39,1.95H9.1z M12.55,42.55c-0.51-0.49-1.16-0.74-1.95-0.74
	c-0.62,0-1.17,0.16-1.65,0.47c-0.39,0.26-0.68,0.59-0.88,0.98c-0.29,0.59-0.43,1.24-0.43,1.96c0,0.43,0.05,0.84,0.16,1.24
	c0.13,0.52,0.33,0.94,0.59,1.26c0.54,0.67,1.31,1.01,2.3,1.01c1.42,0,2.3-0.7,2.63-2.1h-0.64c-0.09,0.38-0.24,0.69-0.44,0.94
	c-0.36,0.44-0.81,0.66-1.36,0.66c-1.18,0-1.77-0.96-1.79-2.9h4.35C13.42,44.03,13.12,43.1,12.55,42.55 M1.69,43.6h1.09
	c0.53,0,0.94,0.1,1.22,0.31c0.48,0.35,0.71,0.98,0.71,1.91c0,0.92-0.23,1.56-0.7,1.9c-0.29,0.22-0.73,0.33-1.31,0.33h-1V43.6z
	 M1.69,38.91h0.77c0.32,0,0.59,0.02,0.8,0.05c0.2,0.03,0.39,0.12,0.57,0.25c0.46,0.34,0.69,0.92,0.69,1.74
	c0,0.61-0.13,1.1-0.38,1.48c-0.28,0.43-0.76,0.64-1.44,0.64H1.69V38.91z M0,48.56h2.79c0.7,0,1.21-0.03,1.53-0.09
	c0.74-0.13,1.29-0.44,1.66-0.92c0.36-0.45,0.53-1.02,0.53-1.7c0-0.9-0.29-1.56-0.88-2c-0.41-0.3-0.96-0.48-1.68-0.53v-0.04
	c1.55-0.22,2.33-1,2.33-2.36c0-0.54-0.12-1-0.37-1.4c-0.29-0.47-0.74-0.8-1.35-0.98c-0.35-0.1-0.88-0.15-1.59-0.15H0V48.56z"/>
<g>
	<path class="st0" d="M89.53,20.28c-0.58,1.7-1.39,3.13-2.42,4.31c-1.04,1.18-2.26,2.08-3.69,2.71c-1.42,0.63-2.97,0.94-4.66,0.94
		h-0.48c-1.04,0-3.32-0.27-3.64-0.33V2.22c0.32-0.03,3.15-0.33,3.64-0.33h0.39c1.75,0,3.34,0.32,4.78,0.96
		c1.44,0.65,2.68,1.57,3.71,2.76c1.03,1.19,1.83,2.63,2.4,4.31c0.57,1.68,0.85,2.58,0.85,4.66C90.4,16.68,90.11,18.58,89.53,20.28
		 M96.41,8.93c-0.84-1.9-2.1-3.51-3.78-4.83c-1.68-1.32-3.77-2.33-6.26-3.04C83.88,0.35,80.97,0,77.64,0h-9.31v6.13v24h10.57
		c3.04,0,5.73-0.38,8.08-1.15c2.34-0.77,4.31-1.85,5.89-3.23c1.59-1.38,2.78-3.04,3.59-4.97c0.81-1.93,1.21-4.06,1.21-6.39
		C97.68,12,97.25,10.83,96.41,8.93"/>
	<path class="st0" d="M59.3,20.7L42.61,2.83c-0.74-0.94-1.69-1.65-2.84-2.12c-0.87-0.36-2-0.58-3.27-0.67c0,1,0,5.02,0,5.61v24.47
		h2.42V7.78l20.56,22.49h2.23V0H59.3V20.7z"/>
	<path class="st0" d="M23.59,24c0,1.2,0.06,2.18,0.19,2.97c0.13,0.78,0.36,1.41,0.7,1.89c0.34,0.47,0.79,0.8,1.36,0.99
		c0.57,0.19,1.27,0.28,2.11,0.28h1.94c0,0,0-4.71,0-6.12V0h-6.3V24z"/>
	<polygon class="st0" points="0,0 0,30.12 6.31,30.12 6.31,15.28 16.98,15.28 16.98,13.16 6.31,13.16 6.31,2.12 19.22,2.12 19.23,0 
			"/>
</g>
<path class="st1" d="M133.6,30.11c-0.11,0-0.06-0.01,0-0.04c0.93-0.4,2.07-3.6,2.27-4.31c0.11-0.4,1.59-1.43,1.59-1.77
	c0-0.33-0.3-0.9-0.3-0.9s0.47-0.47,0.47-0.93c0-0.47-0.59-1.99-0.59-1.99c1.71-0.86,3.1-0.87,3.1-2.53c0-2.88-4.64-5.37-4.8-9.11
	c0-0.07,0-0.4,0-0.47c0-6.04-2.33-7.79-2.75-8.01C132.54,0.01,132.59,0,132.59,0l12.42,0c0,0,4.97,3.44,4.97,9.98
	c0,2.7,4.01,5.4,4.01,7.45c0,1.28-1.71,1.8-1.92,1.98c-0.22,0.18-0.44,0.94-0.44,1.71s0.55,0.7,0.55,1.23c0,0.7-1.29,1.24-1.29,1.24
	s1,0.68,1,1.04c0,0.53-1.3,1.06-1.3,1.89c0,1.9-1.8,3.6-4.8,3.6C143.05,30.12,134.83,30.11,133.6,30.11 M147.37,7.35
	c0.6-0.06,0.44-0.44,0.19-0.65c-1.04-0.87-3.15-0.59-4.59-0.3c-0.82,0.17-1.61,0.37-2.42,0.56c-0.17,0.04-0.48,0.08-0.61,0.16
	c-0.22,0.15-0.04,0.5,0.06,0.66c0.1,0.15,0.27,0.33,0.51,0.43c-0.01,0-0.02-0.01-0.02-0.01c-0.01,0,0.03,0.01,0.03,0.02c0,0,0,0,0,0
	c0.18,0.1,0.38,0.04,0.57,0c0.34-0.08,0.67-0.16,1.01-0.24c0.86-0.21,1.73-0.42,2.64-0.54c0.4-0.05,0.83-0.08,1.25-0.11
	C146.46,7.29,146.93,7.39,147.37,7.35 M144.44,10.97c0,1.02,0.27,1.25,0.27,1.25s-0.75-0.11-0.88-0.11c-0.13,0-0.35,0.01-0.35,0.22
	c0,0.49,1.43,0.58,2.22,0.58c0.78,0,1.22-0.2,1.22-0.44c0-0.24-0.23-0.24-0.23-0.24s0.41-0.47,0.41-1.13c0-0.66-0.27-1.29-0.27-1.29
	s0.38-0.08,0.38-0.37c0-0.29-0.07-0.63-0.74-0.63c-1.04,0-4.06,0.59-4.06,1.72c0,0.09,0,0.41,0.25,0.41c0.36,0,1.99-0.64,1.99-0.64
	S144.44,10.61,144.44,10.97 M146.26,10.91c-0.06-0.41-0.28-0.71-0.5-0.68c-0.22,0.03-0.34,0.39-0.28,0.79
	c0.06,0.41,0.28,0.71,0.5,0.68C146.2,11.67,146.32,11.32,146.26,10.91"/>
<path class="st2" d="M138.91,17.53c0,0.76-0.61,0.93-2.76,1.79c0,0-0.07,0.25-0.07,0.79c0,0.95,0.57,1.65,0.57,2.09
	c0,0.45-0.83,0.82-0.83,0.82s0.43,0.47,0.43,0.79c0,0.32-1.49,1.31-1.49,1.31s-1.24,5.02-3.61,5.02h-12.48c-0.02,0-0.07-0.01,0-0.04
	c0.93-0.35,1.78-2.86,1.78-4.22c0-1.46,1.29-1.52,1.29-2.64c0-0.62-0.29-0.65-0.29-0.65s0.86-0.23,0.86-0.89
	c0-0.31-0.67-2.07-0.67-2.07c0.49-0.15,2.39-0.95,2.39-2.35c0-2.54-5.07-6.74-5.07-9.34c0-0.05,0-0.86,0-0.91
	c0-4.45-4.13-6.65-4.78-6.97c-0.06-0.03-0.05-0.04,0.01-0.04h15.56c1.66,0,4.41,1.14,4.41,9.11
	C134.13,11.52,138.91,15.16,138.91,17.53 M129.76,7.26c1.13,0,2.38,0.46,2.38-0.14c0-0.59-1.74-1.06-2.94-1.06
	c-3.01,0-4.71,1.95-4.71,2.38c0,0.23,0.34,0.24,0.34,0.24C125.93,8.67,126.81,7.26,129.76,7.26 M131.43,11.28
	c0-0.59-0.29-1.29-0.29-1.29s0.34-0.08,0.34-0.49c0-0.23-0.1-0.56-0.6-0.56c-1.4,0-4.49,0.67-4.49,1.81c0,0.09,0.01,0.43,0.3,0.43
	c0.37,0,2.16-0.69,2.16-0.69c-0.28,0.18-0.26,0.64-0.26,0.64c0,0.81,0.35,1.46,0.35,1.46c-0.82,0-1.14-0.06-1.14,0.15
	c0,0.21,0.71,0.45,2,0.45c1.28,0,1.31-0.33,1.31-0.44c0-0.11-0.21-0.11-0.21-0.11S131.43,12.09,131.43,11.28 M130.26,10.22
	c-0.22,0.02-0.36,0.37-0.31,0.78c0.05,0.41,0.26,0.72,0.48,0.7c0.22-0.02,0.36-0.37,0.31-0.78
	C130.69,10.51,130.48,10.2,130.26,10.22"/>
<path class="st0" d="M116.17,30.11c-3.08,0-14.11,0.01-14.11,0.01c5.67-15.06-1.65-17.45-1.65-30.12h10.53
	c3.08,0,6.78,4.05,6.78,6.81c0,0-0.02,1.07,0.16,2.44c0.18,1.37,4.91,6.18,4.91,7.96c0,0.8-2.54,1.66-2.54,1.66
	s-0.03,0.18-0.03,0.52c0,0.64,0.38,1.49,0.38,1.96c0,0-0.05,0.43-0.63,0.57c0,0-0.63,0.11-0.69,0.18c-0.06,0.07,1.19,0.01,1.19,0.84
	c0,0.92-1.16,0.75-1.16,2.65c0,0,0,0.11,0,0.3C119.31,28.38,117.53,30.11,116.17,30.11 M115.53,7.74c0.53,0,0.86-0.58,0.86-1.07
	c0-0.13-0.1-0.25-0.53-0.25c-0.69,0-1.92-0.19-3.65-0.19c-3.1,0-3.72,1.16-3.72,1.41c0,0.25,0.33,0.25,0.33,0.25
	c0.56,0,1.33-0.34,2.98-0.34C113.46,7.55,115.53,7.74,115.53,7.74 M115.01,13.16c0-0.14-0.22-0.2-0.22-0.2s0.31-0.53,0.31-1.11
	c0-0.57-0.35-1.15-0.35-1.25c0-0.1,0.29-0.14,0.29-0.38c0-0.24-0.32-0.57-0.98-0.57c-2.26,0-4.18,1.47-4.18,1.93
	c0,0.14,0.11,0.29,0.54,0.29c0.97,0,2-0.61,2.08-0.61c0.07,0,0.12-0.02,0.12,0.24c0,0.65,0.28,1.42,0.28,1.42s-1.08-0.24-1.08,0.12
	c0,0.36,0.92,0.54,1.93,0.54C114.78,13.59,115.01,13.3,115.01,13.16 M113.91,10.97c-0.22,0.04-0.33,0.4-0.25,0.8
	c0.07,0.4,0.31,0.7,0.53,0.66c0.22-0.04,0.33-0.4,0.25-0.8C114.36,11.23,114.12,10.94,113.91,10.97"/>
</svg>
